<?xml version="1.0" encoding="UTF-8"?>
<svg id="Layer_2" data-name="Layer 2" xmlns="http://www.w3.org/2000/svg" viewBox="0 0 549.39 325.58">
  <defs>
    <style>
      .cls-1 {
        fill-rule: evenodd;
      }

      .cls-1, .cls-2 {
        fill: #5600D1;
        stroke-width: 0px;
      }
    </style>
  </defs>
  <g id="Layer_1-2" data-name="Layer 1">
    <g>
      <g>
        <path class="cls-2" d="M49.51,194.93h30.34l49.32,128.42h-28.1l-9.12-24.94h-55.27l-8.93,24.94H0l49.51-128.42ZM83.19,274.77l-18.8-51.55-18.98,51.55h37.78Z"/>
        <path class="cls-2" d="M127.63,275.89c0-28.29,21.96-49.69,50.99-49.69,25.31,0,45.04,16.19,48.76,38.71h-25.68c-3.16-9.12-12.1-15.26-23.08-15.26-14.89,0-26.05,11.35-26.05,26.24s11.16,26.24,26.05,26.24c10.98,0,19.92-6.14,23.08-15.26h25.68c-3.72,22.52-23.45,38.71-48.76,38.71-29.03,0-50.99-21.4-50.99-49.69"/>
        <path class="cls-2" d="M233.41,275.89c0-28.29,21.96-49.69,51-49.69s50.99,21.4,50.99,50.07c0,2.6-.19,5.58-.74,8h-75.38c3.16,12.28,13.03,20.29,26.06,20.29,9.86,0,18.05-4.47,22.33-10.61h26.24c-7.26,18.8-26.06,31.64-49.13,31.64-29.41,0-51.37-21.4-51.37-49.69M259.47,266.58h50.07c-2.98-11.54-12.66-19.36-25.12-19.36s-21.59,7.63-24.94,19.36"/>
        <path class="cls-2" d="M342.32,275.89c0-28.29,19.91-49.69,46.34-49.69,12.66,0,23.26,5.02,30.9,13.4v-50.25h24.2v134h-24.2v-11.17c-7.63,8.38-18.24,13.4-30.9,13.4-26.43,0-46.34-21.4-46.34-49.69M419.56,275.89c0-14.89-11.17-26.24-26.24-26.24s-26.06,11.35-26.06,26.24,11.17,26.24,26.06,26.24,26.24-11.35,26.24-26.24"/>
        <path class="cls-2" d="M460.3,199.77c0-5.96,4.65-10.61,10.8-10.61s10.61,4.65,10.61,10.61-4.65,10.61-10.61,10.61-10.8-4.47-10.8-10.61M463.09,228.43h16.01v94.92h-16.01v-94.92Z"/>
        <path class="cls-2" d="M507.88,295.43v-52.48h-17.31v-14.52h11.17c4.47,0,6.89-2.42,6.89-7.07v-19.17h15.26v26.24h25.5v14.52h-25.5v49.88c0,9.68,6.14,15.82,16.19,15.82h9.3v14.7h-11.54c-19.17,0-29.96-10.24-29.96-27.92"/>
      </g>
      <g>
        <path class="cls-1" d="M339.52,68.95c50.75,54.99-19.12,100.64-61.89,55.39l-41.24-43.63c-.94-1-2.53-1-3.48,0-.97,1.02-2.04,2.16-3.22,3.41-6.46,6.87-6.85,14.56-3.56,19.39,6.03,8.87,19.71,22.75,29.5,32.83,2.21,2.27.93,6.09-2.2,6.58-16.04,2.49-32.95.73-45.52-10.86-3.45-3.17-3.39-3.2-6.49-6.74-12.55-14.34-14.75-38.02,8.28-61.85,20.1-20.79,40.43-41.39,60.67-62.04,1.92-1.95,5.07-1.91,6.93.1l62.21,67.41Z"/>
        <path class="cls-2" d="M271.63,150.45l-22.91,25.61c-2.36,2.64-.49,6.84,3.06,6.84h45.82c3.55,0,5.42-4.19,3.06-6.84l-22.91-25.61c-1.63-1.82-4.49-1.82-6.12,0"/>
      </g>
    </g>
  </g>
</svg>